# xmcd
#
# Track frame offsets:
# 150
# 21391
# 81807
# 125569
# 156184
#
# Disc length: 2420 seconds
#
# Revision: 0
# Processed by: cddbd v1.5.2PL0 Copyright (c) Steve Scherf et al.
# Submitted via: Audion 3.0.2 (http://www.panic.com/audion/)
#
DISCID=39097205
DTITLE=Widespread Panic - Live at Myrtle Beach
DYEAR=1900
DGENRE=
TTITLE0=Action Man
TTITLE1=Bowlegged Woman
TTITLE2=Chilly Water
TTITLE3=Jack
TTITLE4=Stop Breakin Down Blues
EXTD=
EXTT0=
EXTT1=
EXTT2=
EXTT3=
EXTT4=
PLAYORDER=
